G04 MADE WITH FRITZING*
G04 WWW.FRITZING.ORG*
G04 DOUBLE SIDED*
G04 HOLES PLATED*
G04 CONTOUR ON CENTER OF CONTOUR VECTOR*
%ASAXBY*%
%FSLAX23Y23*%
%MOIN*%
%OFA0B0*%
%SFA1.0B1.0*%
%ADD10C,0.049370*%
%ADD11C,0.128110*%
%ADD12C,0.096614*%
%ADD13C,0.085000*%
%ADD14C,0.482440*%
%ADD15C,0.254000*%
%LNMASK0*%
G90*
G70*
G54D10*
X858Y1385D03*
X1357Y1284D03*
X3757Y1485D03*
X1255Y2233D03*
X2557Y1034D03*
X2257Y2184D03*
X2957Y2534D03*
X2107Y2284D03*
X2057Y1934D03*
G54D11*
X1957Y2684D03*
G54D12*
X842Y2700D03*
G54D11*
X3107Y2684D03*
X3107Y284D03*
X1959Y284D03*
X859Y284D03*
G54D10*
X2659Y2333D03*
G54D13*
X1757Y1534D03*
X1757Y1634D03*
X1757Y1734D03*
G54D14*
X3657Y2684D03*
X2538Y2684D03*
X307Y2684D03*
X1423Y2684D03*
X307Y284D03*
X3657Y284D03*
X1424Y284D03*
X2538Y284D03*
G54D13*
X3407Y834D03*
X3407Y734D03*
X3407Y634D03*
X2507Y884D03*
X2507Y784D03*
X2507Y684D03*
X2557Y2084D03*
X2557Y2184D03*
X2557Y2284D03*
X2357Y2084D03*
X2357Y2184D03*
X2357Y2284D03*
X1957Y1534D03*
X1957Y1634D03*
X1957Y1734D03*
X1557Y1534D03*
X1557Y1634D03*
X1557Y1734D03*
X1357Y1534D03*
X1357Y1634D03*
X1357Y1734D03*
X1557Y1984D03*
X1557Y2084D03*
X1557Y2184D03*
X757Y1784D03*
X757Y1684D03*
X757Y1584D03*
X557Y1784D03*
X557Y1684D03*
X557Y1584D03*
X357Y1784D03*
X357Y1684D03*
X357Y1584D03*
X157Y1784D03*
X157Y1684D03*
X157Y1584D03*
X3607Y1484D03*
X3607Y1384D03*
X3607Y1284D03*
X2857Y1084D03*
X2857Y1184D03*
X2857Y1284D03*
X2657Y1084D03*
X2657Y1184D03*
X2657Y1284D03*
X2457Y1084D03*
X2457Y1184D03*
X2457Y1284D03*
X3607Y2084D03*
X3607Y2184D03*
X3607Y2284D03*
X3407Y2084D03*
X3407Y2184D03*
X3407Y2284D03*
X3207Y2084D03*
X3207Y2184D03*
X3207Y2284D03*
X3007Y2084D03*
X3007Y2184D03*
X3007Y2284D03*
X2807Y884D03*
X2807Y784D03*
X2807Y684D03*
X757Y984D03*
X757Y1084D03*
X757Y1184D03*
X557Y984D03*
X557Y1084D03*
X557Y1184D03*
X357Y984D03*
X357Y1084D03*
X357Y1184D03*
X157Y984D03*
X157Y1084D03*
X157Y1184D03*
X3057Y684D03*
X3057Y1084D03*
X3607Y1084D03*
X3607Y684D03*
X2457Y1434D03*
X2457Y1834D03*
X3057Y1434D03*
X3057Y1834D03*
X3407Y1834D03*
X3407Y1434D03*
X2157Y384D03*
X2157Y784D03*
X2857Y2134D03*
X2857Y2534D03*
X2857Y1484D03*
X2857Y1884D03*
X1257Y1984D03*
X1257Y2384D03*
X1707Y384D03*
X1707Y784D03*
X957Y484D03*
X957Y884D03*
X957Y1234D03*
X957Y1634D03*
X957Y1984D03*
X957Y2384D03*
X607Y434D03*
X607Y834D03*
X757Y1984D03*
X757Y2384D03*
X457Y1984D03*
X457Y2384D03*
X157Y1984D03*
X157Y2384D03*
G54D15*
X1419Y2684D03*
X3657Y284D03*
X2539Y284D03*
X1419Y284D03*
X3657Y2684D03*
X307Y2684D03*
X307Y284D03*
X2537Y2684D03*
G54D10*
X3207Y1384D03*
X2566Y1650D03*
X2207Y1984D03*
X2657Y2034D03*
G04 End of Mask0*
M02*