; NON-PLATED HOLES START AT T1
; THROUGH (PLATED) HOLES START AT T100
M48
INCH
T1C0.118110
T2C0.086614
T100C0.150000
T101C0.015748
T102C0.035000
T103C0.157480
%
T1
X008593Y002843
X019593Y002843
X031074Y026843
X019574Y026843
X031074Y002843
T2
X008416Y027001
T100
X003074Y002843
X014194Y002843
X036574Y002843
X036574Y026843
X025394Y002843
X014194Y026843
X003074Y026843
X025374Y026843
T101
X013574Y012843
X026590Y023327
X020574Y019343
X025574Y010343
X021074Y022843
X022574Y021843
X012549Y022333
X022074Y019843
X008579Y013851
X029574Y025343
X037573Y014851
X026574Y020343
X025663Y016496
X032074Y013843
T102
X007574Y009843
X032074Y022843
X026574Y012843
X019574Y016343
X023574Y021843
X028574Y014843
X001574Y011843
X030574Y014343
X001574Y023843
X028574Y010843
X001574Y009843
X003574Y009843
X036074Y013843
X003574Y017843
X001574Y016843
X032074Y021843
X028574Y011843
X023574Y022843
X034074Y008343
X005574Y017843
X024574Y014343
X019574Y017343
X017074Y007843
X001574Y017843
X005574Y015843
X009574Y012343
X015574Y015343
X034074Y021843
X024574Y012843
X004574Y019843
X007574Y016843
X028574Y018843
X036074Y021843
X003574Y016843
X030574Y018343
X015574Y016343
X030574Y006843
X015574Y019843
X021574Y007843
X032074Y020843
X005574Y011843
X036074Y020843
X007574Y019843
X007574Y010843
X028574Y012843
X034074Y014343
X001574Y010843
X036074Y012843
X026574Y011843
X028574Y021343
X003574Y011843
X005574Y010843
X025574Y021843
X015574Y020843
X028074Y008843
X030074Y020843
X009574Y016343
X015574Y021843
X006074Y004343
X012574Y023843
X007574Y011843
X007574Y017843
X024574Y010843
X025574Y022843
X009574Y008843
X005574Y009843
X025074Y006843
X036074Y022843
X034074Y018343
X007574Y023843
X025074Y008843
X009574Y023843
X004574Y023843
X006074Y008343
X028074Y006843
X026574Y010843
X017074Y003843
X009574Y004843
X017574Y016343
X030074Y021843
X013574Y015343
X012574Y019843
X034074Y006343
X036074Y006843
X003574Y015843
X019574Y015343
X001574Y015843
X017574Y015343
X028574Y025343
X001574Y019843
X005574Y016843
X028074Y007843
X034074Y007343
X013574Y016343
X036074Y010843
X021574Y003843
X023574Y020843
X003574Y010843
X009574Y019843
X015574Y017343
X034074Y020843
X007574Y015843
X024574Y018343
X030074Y022843
X024574Y011843
X013574Y017343
X017574Y017343
X025574Y020843
X030574Y010843
X034074Y022843
X025074Y007843
X036074Y014843
T103
X025376Y026843
X014244Y002844
X014233Y026843
X003074Y026843
X025378Y002844
X036574Y026843
X003074Y002844
X036574Y002844
T00
M30
